<svg width="484" height="397" viewBox="0 0 484 397" fill="none" xmlns="http://www.w3.org/2000/svg">
<rect width="484" height="397" fill="#CC8181"/>
<rect x="15" y="48.3553" width="50" height="50" transform="rotate(-45 15 48.3553)" fill="#F2EABF" fill-opacity="0.78"/>
<rect x="299" y="243.355" width="50" height="50" transform="rotate(-45 299 243.355)" fill="#F2EABF" fill-opacity="0.78"/>
<rect x="391" y="338.355" width="50" height="50" transform="rotate(-45 391 338.355)" fill="#F2EABF" fill-opacity="0.78"/>
<rect x="299" y="338.355" width="50" height="50" transform="rotate(-45 299 338.355)" fill="#F2EABF" fill-opacity="0.78"/>
<rect x="207" y="338.355" width="50" height="50" transform="rotate(-45 207 338.355)" fill="#F2EABF" fill-opacity="0.78"/>
<rect x="391" y="243.355" width="50" height="50" transform="rotate(-45 391 243.355)" fill="#F2EABF" fill-opacity="0.78"/>
<rect x="15" y="238.355" width="50" height="50" transform="rotate(-45 15 238.355)" fill="#F2EABF" fill-opacity="0.78"/>
<rect x="111" y="333.355" width="50" height="50" transform="rotate(-45 111 333.355)" fill="#F2EABF" fill-opacity="0.78"/>
<rect x="207" y="243.355" width="50" height="50" transform="rotate(-45 207 243.355)" fill="#F2EABF" fill-opacity="0.78"/>
<rect x="111" y="238.355" width="50" height="50" transform="rotate(-45 111 238.355)" fill="#F2EABF" fill-opacity="0.78"/>
<rect x="15" y="333.355" width="50" height="50" transform="rotate(-45 15 333.355)" fill="#F2EABF" fill-opacity="0.78"/>
<rect x="391" y="148.355" width="50" height="50" transform="rotate(-45 391 148.355)" fill="#F2EABF" fill-opacity="0.78"/>
<rect x="299" y="143.355" width="50" height="50" transform="rotate(-45 299 143.355)" fill="#F2EABF" fill-opacity="0.78"/>
<rect x="207" y="143.355" width="50" height="50" transform="rotate(-45 207 143.355)" fill="#F2EABF" fill-opacity="0.78"/>
<rect x="111" y="143.355" width="50" height="50" transform="rotate(-45 111 143.355)" fill="#F2EABF" fill-opacity="0.78"/>
<rect x="15" y="143.355" width="50" height="50" transform="rotate(-45 15 143.355)" fill="#F2EABF" fill-opacity="0.78"/>
<rect x="391" y="48.3553" width="50" height="50" transform="rotate(-45 391 48.3553)" fill="#F2EABF" fill-opacity="0.78"/>
<rect x="111" y="48.3553" width="50" height="50" transform="rotate(-45 111 48.3553)" fill="#F2EABF" fill-opacity="0.78"/>
<rect x="299" y="48.3553" width="50" height="50" transform="rotate(-45 299 48.3553)" fill="#F2EABF" fill-opacity="0.78"/>
<rect x="207" y="48.3553" width="50" height="50" transform="rotate(-45 207 48.3553)" fill="#F2EABF" fill-opacity="0.78"/>
</svg>
